<svg xmlns="http://www.w3.org/2000/svg" viewBox="0 0 54.73 55.57"><defs><style>.cls-1{fill:#b3b3b3;}</style></defs><g id="Layer_2" data-name="Layer 2"><g id="_ÎÓÈ_1" data-name="—ÎÓÈ_1"><path class="cls-1" d="M38.14,36.25A10.78,10.78,0,1,1,27.26,25.57,10.73,10.73,0,0,1,38.14,36.25Zm-5.13,0a5.66,5.66,0,1,0-5.65,5.57A5.65,5.65,0,0,0,33,36.28Z"/><path class="cls-1" d="M35.94,8.47C33.7,6.23,27.36,0,27.36,0S21,6.23,18.79,8.47a2.61,2.61,0,0,0-.22,3.9c1.1,1.08,2.56,1,3.89-.3.7-.66,1.38-1.35,2.34-2.3,0,3.88,0,7.33,0,10.77,0,1.76,1,2.81,2.46,2.86h.19c1.51,0,2.45-1.1,2.46-2.86,0-3.44,0-6.89,0-10.77,1,1,1.64,1.64,2.34,2.3,1.33,1.28,2.79,1.38,3.89.3A2.61,2.61,0,0,0,35.94,8.47Z"/><rect class="cls-1" x="41" y="24.01" width="5.1" height="2.68" rx="1.34"/><path class="cls-1" d="M44.62,16.09H36.93v4.75h7.69A5.36,5.36,0,0,1,50,26.19V45.47a5.36,5.36,0,0,1-5.35,5.35H10.1a5.36,5.36,0,0,1-5.35-5.35V26.19a5.36,5.36,0,0,1,5.35-5.35h7.7V16.09H10.1A10.11,10.11,0,0,0,0,26.19V45.47a10.11,10.11,0,0,0,10.1,10.1H44.62a10.11,10.11,0,0,0,10.11-10.1V26.19A10.11,10.11,0,0,0,44.62,16.09Z"/></g></g></svg>