<svg xmlns="http://www.w3.org/2000/svg" viewBox="0 0 40.32 39.05"><defs><style>.cls-1{fill:#fff;fill-rule:evenodd;}</style></defs><g id="Layer_2" data-name="Layer 2"><g id="Layer_1-2" data-name="Layer 1"><path class="cls-1" d="M37.94,0H2.54A2.51,2.51,0,0,0,0,2.54v34a2.5,2.5,0,0,0,2.54,2.54h35.4a2.47,2.47,0,0,0,2.38-2.54v-34A2.48,2.48,0,0,0,37.94,0ZM26.51,2.54h0V6.35H22.7V2.54Zm-10,0h0V6.35H12.7V2.54Zm-14,0H6.35V6.35H2.54Zm35.4,34H2.54V8.9h35.4ZM36.67,6.35H32.86V2.54h3.81V6.35ZM28.1,21.59h0c1.27.64,1.27,1.59,0,2.22L14.92,30.32c-1.27.63-2.22,0-2.22-1.27V16.35c0-1.26,1-1.9,2.22-1.26Z"/></g></g></svg>