<svg xmlns="http://www.w3.org/2000/svg" viewBox="0 0 40.79 40.79"><defs><style>.cls-1{fill:#fff;}</style></defs><g id="Layer_2" data-name="Layer 2"><g id="Layer_1-2" data-name="Layer 1"><path class="cls-1" d="M18.74,30.61l-1.57,6.78L24,35.82,37,22.75l-5.21-5.21Zm.4,4.81.95-4.07,3.12,3.12ZM31.68,20.6l-9.17,9.17a.37.37,0,0,1-.52,0,.37.37,0,0,1,0-.53l9.17-9.17a.37.37,0,0,1,.52,0A.39.39,0,0,1,31.68,20.6Z"/><path class="cls-1" d="M40.36,17.33l-3.13-3.12a1.47,1.47,0,0,0-2.09,0L33.38,16l5.21,5.21,1.77-1.76A1.49,1.49,0,0,0,40.36,17.33Z"/><path class="cls-1" d="M27.71,38.24a.84.84,0,0,1-.85.85H2.55a.84.84,0,0,1-.85-.85V2.55a.85.85,0,0,1,.85-.85H17.86V7.3a4.26,4.26,0,0,0,4.25,4.25h5.6v7.68l1.7-1.7V9.85h-7.3A2.55,2.55,0,0,1,19.56,7.3V0h-17A2.55,2.55,0,0,0,0,2.55V38.24a2.55,2.55,0,0,0,2.55,2.55H26.86a2.55,2.55,0,0,0,2.55-2.55V32.77l-1.7,1.7Z"/><path class="cls-1" d="M22.11,8.15h6.45L21.26.85V7.3A.85.85,0,0,0,22.11,8.15Z"/><path class="cls-1" d="M4.77,16.41H18.85a.85.85,0,0,0,0-1.7H4.77a.85.85,0,1,0,0,1.7Z"/><path class="cls-1" d="M25.48,20.82a.85.85,0,0,0-.85-.85H4.77a.85.85,0,0,0,0,1.7H24.63A.85.85,0,0,0,25.48,20.82Z"/><path class="cls-1" d="M22,25H4.78a.85.85,0,1,0,0,1.7H20.26Z"/><path class="cls-1" d="M3.93,30.86a.84.84,0,0,0,.85.85h12l.4-1.7H4.78A.86.86,0,0,0,3.93,30.86Z"/></g></g></svg>